<?xml version="1.0" encoding="utf-8"?>
<svg version="1.1" width="6" height="6" xmlns="http://www.w3.org/2000/svg">
	<path d="M 2.25, 2  a 0.25, 0.25 0 0 1 0, 0.5 a 0.25, 0.25 0 0 1 0, 0.5 a 0.25, 0.25 0 0 1 0, 0.5 a 0.25, 0.25 0 0 1 0, 0.5" style="fill-opacity:0;fill:rgb(255, 255, 255);stroke:rgb(255, 255, 255);stroke-width:0.1" />
	<path d="M 3.75, 2  a 0.25, 0.25 0 0 0 0, 0.5 a 0.25, 0.25 0 0 0 0, 0.5 a 0.25, 0.25 0 0 0 0, 0.5 a 0.25, 0.25 0 0 0 0, 0.5" style="fill-opacity:0;fill:rgb(255, 255, 255);stroke:rgb(255, 255, 255);stroke-width:0.1" />
	<line x1="2.8" y1="1.95" x2="2.8" y2="4.05" style="stroke:rgb(255, 255, 255);stroke-linecap:square;stroke-width:0.1" />
	<line x1="3.2" y1="1.95" x2="3.2" y2="4.05" style="stroke:rgb(255, 255, 255);stroke-linecap:square;stroke-width:0.1" />
	<line x1="2.25" y1="2" x2="2" y2="2" style="stroke:rgb(255, 255, 255);stroke-linecap:square;stroke-width:0.1" />
	<line x1="2.25" y1="4" x2="2" y2="4" style="stroke:rgb(255, 255, 255);stroke-linecap:square;stroke-width:0.1" />
	<line x1="3.75" y1="2" x2="4" y2="2" style="stroke:rgb(255, 255, 255);stroke-linecap:square;stroke-width:0.1" />
	<line x1="3.75" y1="4" x2="4" y2="4" style="stroke:rgb(255, 255, 255);stroke-linecap:square;stroke-width:0.1" />
</svg>